# xmcd
#
# Track frame offsets: 
#        150
#        19687
#        38167
#        53214
#        79069
#        115724
#        133931
#        149095
#        175793
#        194052
#        207806
#        227043
#        254046
#        279153
#        310069
#
# Disc length: 4349 seconds
#
# Revision: 0
# Processed by: cddbd v1.5.2PL0 Copyright (c) Steve Scherf et al.
# Submitted via: ExactAudioCopy v1.3
#
DISCID=da10fb0f
DTITLE=Various Artist - Burning Blues  vol. 05
DYEAR=2018
DGENRE=Blues
TTITLE0=Eric Street Band - I'm A Blues Man
TTITLE1=Tim Barnes and the Five Grand Band - Back Talkin' Baby
TTITLE2=Miss Freddye - Lady Of The Blues
TTITLE3=Bluezzcontrol - Not My Fault
TTITLE4=Texas Slim - Play  It Cool
TTITLE5=Jack Mack and the Heart Attack Horns - Standin' Before The Kin
TTITLE5=g
TTITLE6=T44 Blues Band - To Be In Love
TTITLE7=Toronzo Cannon - Walk It Off
TTITLE8=Bob Margolin - I Shall Prevail
TTITLE9=Jay Willie Blues Band - Sinner's Prayer
TTITLE10=Big Bill Morganfield - Bloodstains On The Wall
TTITLE11=John Primer and Bob Corritore - Gambling Blues
TTITLE12=Coco Montoya - Old Habits Are Hard To Break
TTITLE13=Zora Young and Little Mike and the Tornadoes - Chains Of Love
TTITLE14=Billy Thompson - Johnny Is A Cloud
EXTD=
EXTT0=
EXTT1=
EXTT2=
EXTT3=
EXTT4=
EXTT5=
EXTT6=
EXTT7=
EXTT8=
EXTT9=
EXTT10=
EXTT11=
EXTT12=
EXTT13=
EXTT14=
PLAYORDER=
